<?xml version="1.0" encoding="UTF-8" standalone="no"?>
<!-- Created with Inkscape (http://www.inkscape.org/) -->

<svg
   width="149.14418mm"
   height="95.905327mm"
   viewBox="0 0 149.14418 95.905327"
   version="1.1"
   id="svg1"
   xmlns="http://www.w3.org/2000/svg"
   xmlns:svg="http://www.w3.org/2000/svg">
  <defs
     id="defs1">
    <clipPath
       clipPathUnits="userSpaceOnUse"
       id="clipPath4">
      <path
         d="M 0,792 H 612 V 0 H 0 Z"
         transform="translate(-167.979,-282.30571)"
         id="path4" />
    </clipPath>
    <clipPath
       clipPathUnits="userSpaceOnUse"
       id="clipPath56">
      <path
         d="M 0,792 H 612 V 0 H 0 Z"
         transform="translate(-220.64991,-212.26461)"
         id="path56" />
    </clipPath>
    <clipPath
       clipPathUnits="userSpaceOnUse"
       id="clipPath52">
      <path
         d="M 0,792 H 612 V 0 H 0 Z"
         transform="translate(-257.01271,-215.9707)"
         id="path52" />
    </clipPath>
    <clipPath
       clipPathUnits="userSpaceOnUse"
       id="clipPath6">
      <path
         d="M 0,792 H 612 V 0 H 0 Z"
         transform="translate(-257.01271,-215.9707)"
         id="path6" />
    </clipPath>
    <clipPath
       clipPathUnits="userSpaceOnUse"
       id="clipPath8">
      <path
         d="M 0,792 H 612 V 0 H 0 Z"
         transform="translate(-323.89061,-228.4678)"
         id="path8" />
    </clipPath>
    <clipPath
       clipPathUnits="userSpaceOnUse"
       id="clipPath10">
      <path
         d="M 0,792 H 612 V 0 H 0 Z"
         transform="translate(-335.70611,-176.0107)"
         id="path10" />
    </clipPath>
    <clipPath
       clipPathUnits="userSpaceOnUse"
       id="clipPath58">
      <path
         d="M 0,792 H 612 V 0 H 0 Z"
         transform="translate(-404.17291,-208.37791)"
         id="path58" />
    </clipPath>
    <clipPath
       clipPathUnits="userSpaceOnUse"
       id="clipPath60">
      <path
         d="M 0,792 H 612 V 0 H 0 Z"
         transform="translate(-447.05081,-208.64551)"
         id="path60" />
    </clipPath>
    <clipPath
       clipPathUnits="userSpaceOnUse"
       id="clipPath14">
      <path
         d="M 0,792 H 612 V 0 H 0 Z"
         transform="translate(-461.74221,-195.6865)"
         id="path14" />
    </clipPath>
    <clipPath
       clipPathUnits="userSpaceOnUse"
       id="clipPath12">
      <path
         d="M 0,792 H 612 V 0 H 0 Z"
         transform="translate(-436.36131,-214.16701)"
         id="path12" />
    </clipPath>
  </defs>
  <g
     id="layer1"
     transform="translate(-13.49375,-95.514577)">
    <path
       id="path3"
       d="m 0,0 c -0.669,-0.174 -1.339,-0.349 -2.009,-0.522 1.057,-3.957 2.113,-7.915 3.17,-11.872 0.434,0.115 0.868,0.228 1.301,0.342 C 1.642,-8.034 0.821,-4.018 0,0 m 117.893,13.898 c 2.463,0.575 4.53,1.056 6.597,1.539 0.094,0.623 0.189,1.247 0.283,1.87 -1.88,0.779 -3.761,1.559 -5.853,2.426 -0.404,-2.297 -0.645,-3.666 -1.027,-5.835 M -8.981,23.069 c 0.539,-0.121 1.078,-0.243 1.617,-0.364 1.49,1.07 2.981,2.141 5.816,4.176 -2.738,0.521 -4.904,1.613 -5.987,0.946 -1.058,-0.651 -1.009,-3.098 -1.446,-4.758 M 99.331,2.604 c 1.72,0.227 3.711,0.327 5.609,0.801 1.056,0.265 1.956,1.154 2.926,1.761 -0.927,0.949 -1.732,2.089 -2.821,2.784 -0.8,0.511 -1.972,0.44 -2.314,0.504 -1.218,-2.097 -2.297,-3.953 -3.4,-5.85 m 24.061,3.828 c -0.194,-0.581 -0.388,-1.163 -0.582,-1.745 1.986,-0.45 3.967,-1.191 5.96,-1.223 0.943,-0.015 1.907,1.326 2.862,2.054 -1.035,0.778 -2.054,2.167 -3.111,2.195 -1.696,0.046 -3.418,-0.808 -5.129,-1.281 m 117.323,1.483 1.149,0.73 c -1.34,7.743 -2.681,15.485 -4.232,24.443 0.374,-8.601 0.638,-15.903 1.095,-23.194 0.044,-0.699 1.297,-1.321 1.988,-1.979 M 29.982,28.953 c -5.98,0.063 -7.446,3.189 -7.74,7.668 -0.103,1.582 -1.398,3.087 -2.148,4.627 -1.403,-9.124 2.769,-14.265 9.888,-12.295 M 28.67,-10.545 c 0.544,-0.165 1.089,-0.33 1.634,-0.495 0.978,1.454 3.063,3.832 2.749,4.208 -1.757,2.105 -4.093,3.728 -6.231,5.517 -0.484,-0.35 -0.968,-0.701 -1.451,-1.05 1.1,-2.727 2.199,-5.453 3.299,-8.18 m -47.189,128.667 -0.982,-1.594 c 1.926,-1.585 3.852,-3.171 5.778,-4.756 0.545,1.653 1.874,3.522 1.488,4.917 -1.131,4.088 -3.97,1.967 -6.284,1.433 M 239.89,1.482 v -19.646 c 2.855,3.302 2.827,13.6 0,19.646 M 92.764,-13.482 c 0.533,0.268 1.066,0.537 1.599,0.806 -1.795,4.012 -3.59,8.025 -5.736,12.821 -4.561,-7.39 -2.897,-11.545 4.137,-13.627 M -13.639,61.397 c 1.424,-3.684 2.081,-6.344 3.485,-8.524 0.529,-0.822 2.786,-0.531 4.256,-0.748 -0.191,3.091 -0.078,6.262 -0.854,9.197 -0.139,0.525 -3.96,0.075 -6.887,0.075 m 247.177,7.633 c -0.24,-0.077 -0.48,-0.154 -0.72,-0.231 1.773,-8.391 3.548,-16.78 5.321,-25.17 l 0.97,0.184 v 3.801 c 1.112,-0.552 1.913,-0.95 3.261,-1.619 -3.083,8.041 -5.957,15.538 -8.832,23.035 M -11.47,93.06 c -5.14,-0.586 -9.196,-1.054 -10.513,-5.676 -0.242,-0.847 1.196,-3.125 1.677,-3.073 3.351,0.365 6.758,0.907 9.86,2.125 0.45,0.176 -0.636,4.264 -1.024,6.624 M 14.338,-17.604 c 2.325,9.055 -0.441,14.608 -9.884,16.233 0.753,-5.863 1.305,-11.616 2.292,-17.294 0.571,-3.285 2.894,-3.397 5.712,-2.145 -1.628,3.432 -3.134,6.606 -4.64,9.78 0.485,0.259 0.969,0.519 1.453,0.779 1.668,-2.421 3.337,-4.843 5.067,-7.353 m -28.317,161.922 c 2.993,-7.655 2.983,-7.596 10.438,-6.428 5.702,0.894 11.431,1.613 15.736,2.213 1.659,-7.332 3.219,-14.223 4.907,-21.678 -1.271,-0.094 -2.778,-0.205 -4.331,-0.319 v 8.778 c -0.652,0.099 -1.304,0.199 -1.956,0.299 -0.713,-2.56 -1.426,-5.12 -2.169,-7.786 -3.502,1.192 -0.416,7.96 -5.751,6.491 -1.606,-0.443 -2.558,-3.262 -4.265,-5.624 -0.948,-0.051 -2.93,0.278 -4.506,-0.373 -1.412,-0.582 -3.229,-2.158 -3.36,-3.449 -0.26,-2.565 1.05,-4.4 4.317,-3.738 8.444,1.713 16.919,3.276 25.785,4.575 -3.501,-3.625 -1.828,-7.338 -0.923,-10.967 1.108,-4.449 2.321,-8.872 3.725,-14.207 C 13.545,92.95 4.52,93.702 -4.764,94.477 v -7.511 c 10.98,1.142 21.314,2.219 33.275,3.463 -6.22,-3.318 -4.879,-8.019 -4.683,-12.073 0.233,-4.787 1.5,-9.514 2.024,-14.299 0.18,-1.647 -0.526,-3.391 -0.828,-5.09 -2.33,1.404 -5.212,2.364 -6.812,4.354 -1.243,1.547 -0.888,4.38 -1.243,6.641 -0.555,0.138 -1.11,0.275 -1.665,0.414 C 14.49,67.971 13.676,65.565 12.677,62.611 11.5,65.009 10.351,67.353 9.2,69.696 8.69,69.479 8.179,69.262 7.669,69.045 c 1.461,-4.474 2.693,-9.046 4.55,-13.349 0.443,-1.025 3.005,-1.689 4.531,-1.591 4.447,0.291 8.863,1.05 13.271,1.624 -0.446,-2.874 -0.924,-5.296 -1.175,-7.742 -0.27,-2.634 0.717,-5.363 -3.53,-6.36 -2.796,-0.656 -1.737,-7.24 1.875,-11.056 1.234,1.543 2.432,3.04 3.686,4.608 2.265,-2.166 4.472,-4.277 6.669,-6.378 -9.384,-6.697 -11.079,-17.56 -3.721,-28.608 5.351,-8.034 4.862,-8.622 1.451,-19.744 0.759,-0.5 1.529,-1.007 2.668,-1.757 -1.311,-1.094 -2.364,-1.973 -4.341,-3.623 h 52.172 c -1.16,1.604 -2.104,2.908 -3.746,5.177 4.024,0.335 7.49,0.624 10.955,0.912 0.005,0.413 0.01,0.825 0.015,1.238 -4.14,0.37 -8.28,0.739 -12.265,1.095 V 9.165 C 85.225,7.633 88.729,6.437 92.85,5.032 v 10.385 c 3.384,0 6.267,-0.245 9.075,0.104 1.386,0.173 2.634,1.443 3.945,2.217 -1.033,1.207 -1.844,2.861 -3.153,3.508 -1.607,0.794 -3.63,0.747 -5.907,1.138 -1.972,4.302 -1.751,4.813 3.519,5.63 3.127,0.483 6.284,0.779 9.433,1.101 0.987,0.101 2.486,0.439 2.913,-0.055 3.9,-4.514 8.596,-1.872 12.965,-1.572 7.411,0.507 7.66,0.403 9.372,-7.724 -2.121,0 -4.189,0.247 -6.156,-0.094 -1.172,-0.203 -2.183,-1.33 -3.267,-2.041 1.106,-0.538 2.191,-1.459 3.322,-1.517 1.443,-0.074 2.922,0.798 4.385,0.8 1.423,0.001 2.847,-0.582 4.27,-0.909 -0.822,-1.394 -1.606,-2.813 -2.492,-4.164 -0.25,-0.381 -0.801,-0.565 -1.233,-0.852 5.759,-6.273 11.284,-12.291 17.566,-19.134 -2.454,0.321 -3.792,0.496 -5.699,0.746 0.954,-1.615 1.732,-2.933 2.52,-4.268 -1.766,-4.243 -5.293,-4.661 -9.228,-4.284 -1.156,0.11 -2.429,0.316 -3.473,-0.039 -1.306,-0.445 -2.432,-1.422 -3.636,-2.169 1.373,-0.587 2.906,-1.892 4.09,-1.629 4.035,0.895 7.949,2.341 11.906,3.585 1.017,0.319 2.024,0.672 3.776,1.257 -3.12,-3.442 -5.66,-6.245 -8.201,-9.048 0.228,-0.408 0.455,-0.816 0.683,-1.223 23.646,0.247 47.463,-2.331 71.437,5.431 -5.691,0.666 -10.771,0.946 -15.714,1.923 -5.675,1.12 -7.029,-6.781 -12.993,-5.274 -0.563,2.919 -1.03,5.46 3.056,7.407 2.103,1.001 4.069,4.124 4.475,6.557 3.225,19.382 6.211,38.807 8.961,58.263 1.691,11.967 2.841,24.011 5.458,36.239 1.865,-9.662 3.73,-19.323 5.909,-30.603 5.861,7.522 10.919,14.013 16.469,21.135 14.735,-20.847 29.453,-41.671 44.171,-62.495 -0.386,-0.486 -0.773,-0.973 -1.159,-1.461 -4.752,2.598 -9.504,5.197 -14.255,7.794 -0.208,-0.209 -0.417,-0.418 -0.625,-0.626 8.074,-11.588 16.147,-23.175 24.22,-34.762 -0.282,-0.372 -0.563,-0.746 -0.846,-1.118 -4.751,1.045 -9.502,2.089 -14.459,3.179 2.413,-7.927 3.252,-8.334 10.296,-6.108 5.808,1.835 11.679,3.471 17.522,5.197 0.195,-0.428 0.39,-0.856 0.586,-1.284 -5.626,-2.858 -11.252,-5.715 -16.878,-8.573 -0.01,-0.366 -0.019,-0.731 -0.028,-1.097 h 42.797 l 0.162,-1.94 c -1.592,-0.263 -3.184,-0.751 -4.777,-0.753 -12.657,-0.031 -25.315,-0.069 -37.97,0.122 -4.205,0.062 -6.695,-0.874 -6.537,-5.758 0.134,-4.175 -3.299,-4.506 -6.336,-4.655 -4.98,-0.243 -10.714,1.258 -14.775,-0.737 -5.295,-2.601 -9.591,1.563 -14.806,-0.293 -4.48,-1.594 -10.24,0.606 -15.444,0.751 -2.103,0.059 -4.22,-1.205 -6.354,-1.293 -3.49,-0.142 -7.094,-0.256 -10.461,0.48 -2.048,0.447 -4.514,2.106 -5.465,3.918 -4.312,8.211 -11.987,7.295 -19.161,7.482 -8.824,0.231 -17.66,0.126 -26.488,-0.009 -15.297,-0.231 -30.592,-0.882 -45.886,-0.841 -23.114,0.062 -46.228,0.459 -69.336,0.975 -4.578,0.103 -6.812,-1.251 -8.123,-5.786 -3.713,-12.848 -8.097,-16.111 -21.471,-16.216 -19.499,-0.15 -38.999,0.002 -58.499,-0.067 -2.968,-0.011 -4.711,0.964 -6.381,3.632 -3.447,5.507 -6.069,11.056 -4.542,18.699 h -31.543 c -0.001,0.615 -0.002,1.23 -0.004,1.846 h 30.745 c 0.6,2.128 1.033,3.661 1.613,5.715 2.78,-0.445 5.847,-1.741 8.405,-1.077 1.84,0.479 3.001,3.572 3.528,6.235 -0.548,-0.431 -1.097,-0.861 -2.124,-1.667 0.008,9.543 7.772,4.38 11.414,6.428 -0.29,0.541 -0.42,1.043 -0.585,1.055 -7.536,0.541 -8.029,5.888 -8.161,11.669 -0.241,10.488 -0.69,20.972 -0.922,31.461 -0.039,1.774 0.839,3.563 0.835,5.345 -0.011,5.594 -0.232,11.189 -0.388,16.783 -0.15,5.413 -0.252,10.828 -0.526,16.235 -0.072,1.409 -0.708,2.789 -0.844,3.29 1.244,1.439 2.764,2.389 2.898,3.505 0.394,3.279 0.367,6.632 0.211,9.941 -0.042,0.888 -1.211,2.516 -1.725,2.463 -3.887,-0.397 -4.271,2.623 -5.068,5.025 -2.651,7.983 -3.144,15.757 0.774,23.757 1.63,3.328 1.335,7.661 1.624,11.558 0.148,2.005 -0.342,4.057 -0.543,6.088 0.403,0.103 0.806,0.205 1.208,0.307 3.178,-7.342 6.355,-14.685 9.532,-22.027 0.297,0.065 0.594,0.131 0.891,0.196 v 15.795 c 3.622,0.714 6.607,2.883 5.917,7.881 -0.503,3.641 -1.005,7.282 -1.68,12.169 1.582,-1.373 2.391,-1.738 2.622,-2.329 1.537,-3.926 3.158,-7.838 4.355,-11.872 1.771,-5.967 5.996,-2.325 9.098,-2.375 2.937,-0.047 4.57,1.655 3.56,4.999 -0.22,0.726 0.434,1.717 1.009,3.703"
       style="fill:#000000;fill-opacity:1;fill-rule:nonzero;stroke:none"
       transform="matrix(0.35277776,0,0,-0.35277776,45.826537,149.20453)"
       clip-path="url(#clipPath4)" />
    <path
       id="path5"
       d="m 0,0 c -7.19,-1.23 -11.631,-4.505 -13.919,-10.338 -1.144,-2.916 -2.805,-6.124 0.517,-9.103 C -5.32,-15.623 -3.69,-7.688 0,0 m 24.638,-0.438 c -1.82,-3.755 -3.771,-7.454 -5.419,-11.283 -1.313,-3.051 -2.006,-6.385 -3.468,-9.35 -0.723,-1.466 -2.559,-2.383 -3.892,-3.549 -0.397,1.68 -0.864,3.348 -1.15,5.046 -0.087,0.518 0.322,1.12 0.642,2.109 -11.804,-7.532 -11.804,-7.532 -17.012,-3.229 -3.5,-2.315 -6.885,-5.852 -11.548,-2.424 -3.545,2.606 -3.986,7.672 -1.82,13.847 2.303,6.567 7.07,10.498 13.397,12.381 2.225,0.662 6.189,0.489 7.188,-0.884 1.57,-2.158 2.103,-5.794 1.619,-8.55 -0.68,-3.877 -2.691,-7.521 -3.363,-11.76 6.072,2.812 14.463,1.805 15.56,10.836 0.198,1.634 -0.161,3.498 -0.797,5.035 -0.982,2.371 0.753,6.736 3.43,6.51 4.581,-0.388 10.078,2.62 12.618,-1.913 3.601,0 7.699,1.002 8.527,-0.218 1.508,-2.221 1.601,-5.81 1.322,-8.736 -0.371,-3.904 -1.66,-7.719 -2.666,-12.05 h 4.605 c 0.238,-0.67 0.51,-1.196 0.434,-1.254 -2.031,-1.508 -3.97,-3.264 -6.242,-4.24 -0.61,-0.262 -3.136,1.792 -3.245,2.928 -0.277,2.908 0.146,5.923 0.6,8.847 0.467,3.014 1.302,5.972 1.976,8.953 -0.503,0.211 -1.005,0.421 -1.508,0.632 -1.28,-2.344 -2.816,-4.588 -3.78,-7.056 -1.514,-3.871 -2.423,-7.985 -4.043,-11.803 -0.616,-1.453 -2.488,-2.374 -3.787,-3.537 -0.328,1.774 -1.246,3.684 -0.877,5.299 1.223,5.34 2.955,10.561 4.377,15.859 0.241,0.896 -0.083,1.944 -0.146,2.923 -0.511,0.21 -1.021,0.421 -1.532,0.631"
       style="fill:#000000;fill-opacity:1;fill-rule:nonzero;stroke:none"
       transform="matrix(0.35277776,0,0,-0.35277776,77.235647,172.60605)"
       clip-path="url(#clipPath6)" />
    <path
       id="path7"
       d="m 0,0 c -0.961,-0.709 -1.922,-1.417 -3.123,-2.303 -1.972,3.479 -0.315,6.064 2.09,7.229 1.941,0.94 4.7,0.19 7.095,0.19 0.058,-0.54 0.117,-1.08 0.174,-1.62 1.543,1.233 2.992,2.613 4.645,3.672 5.184,3.318 9.328,1.404 8.812,-4.641 -0.558,-6.553 -2.131,-13.078 -3.844,-19.459 -1.572,-5.852 -3.917,-11.498 -6.299,-18.314 3.079,1.553 4.901,2.473 6.724,3.392 0.448,-0.484 0.895,-0.968 1.343,-1.453 -2.654,-2.563 -4.975,-5.683 -8.059,-7.526 -2.833,-1.693 -5.745,1.584 -4.745,5.761 1.352,5.637 3.517,11.075 5.147,16.653 1.982,6.784 3.771,13.624 5.644,20.44 L 13.832,2.962 C 12.62,1.838 11.04,0.925 10.26,-0.444 6.329,-7.339 2.473,-14.284 -1.141,-21.349 c -2.343,-4.584 -4.037,-9.503 -6.413,-14.068 -0.902,-1.733 -3.566,-4.389 -4.282,-4.068 -3.431,1.537 -1.11,4.179 -0.27,6.313 1.277,3.247 2.945,6.34 4.21,9.591 2.995,7.688 5.849,15.432 8.76,23.153 z"
       style="fill:#000000;fill-opacity:1;fill-rule:nonzero;stroke:none"
       transform="matrix(0.35277776,0,0,-0.35277776,100.82868,168.19735)"
       clip-path="url(#clipPath8)" />
    <path
       id="path9"
       d="m 0,0 c 0.38,-0.851 0.827,-1.678 1.128,-2.556 2.082,-6.067 4.975,-6.99 8.867,-1.767 3.108,4.169 5.689,13.95 7.994,19.016 -4.637,-3.524 -10.375,-1.713 -9.247,5.716 0.987,6.502 3.171,12.838 5.077,19.171 0.336,1.117 1.907,1.862 2.908,2.779 0.369,-1.442 1.292,-3.005 1.012,-4.309 -1.409,-6.579 -3.133,-13.092 -3.98,-19.912 10.056,0.444 5.78,17.232 14.74,23.707 C 28.388,39.288 28.583,37.671 28.21,36.199 25.268,24.61 22.648,12.909 18.985,1.548 17.551,-2.898 14.146,-6.995 10.815,-10.46 7.826,-13.568 3.45,-13.911 -0.058,-10.831 -3.635,-7.69 -2.494,-3.773 -1.336,-0.07 Z"
       style="fill:#000000;fill-opacity:1;fill-rule:nonzero;stroke:none"
       transform="matrix(0.35277776,0,0,-0.35277776,104.99693,186.70305)"
       clip-path="url(#clipPath10)" />
    <path
       id="path11"
       d="m 0,0 c -6.591,-2.74 -12.206,-11.813 -11.766,-17.258 0.245,-3.023 2.008,-3.684 3.847,-1.76 4.805,5.03 6.2,11.56 7.919,19.018 m -25.065,-41.988 c 0.414,-0.46 0.94,-0.861 1.225,-1.39 2.077,-3.85 4.16,-4.393 6.815,-1.018 2.213,2.815 3.682,6.252 5.265,9.518 1.372,2.829 2.441,5.805 3.335,7.971 -2.866,2.209 -6.889,3.747 -7.596,6.23 -0.991,3.476 -0.472,8.131 1.153,11.415 2.18,4.405 5.716,8.316 9.336,11.732 1.284,1.212 5.51,1.343 6.643,0.214 1.827,-1.821 3.653,-5.58 2.953,-7.679 -4.348,-13.044 -9.104,-25.978 -14.426,-38.653 -1.327,-3.162 -4.884,-5.941 -8.092,-7.543 -1.825,-0.912 -5.791,0.154 -7.359,1.744 -1.344,1.362 -0.649,4.736 -0.855,7.22 0.534,0.081 1.068,0.16 1.603,0.239"
       style="fill:#000000;fill-opacity:1;fill-rule:nonzero;stroke:none"
       transform="matrix(0.35277776,0,0,-0.35277776,140.50585,173.24235)"
       clip-path="url(#clipPath12)" />
    <path
       id="path13"
       d="m 0,0 c 1.878,3.699 3.79,7.383 5.612,11.109 0.5,1.024 1.362,2.511 0.988,3.221 0.524,5.691 1.104,5.429 5.052,6.006 0.87,0.127 0.654,-0.785 2.509,1.254 0.198,0.219 0.114,0.15 0.39,0.37 1.943,1.551 5.042,1.751 6.436,0.66 1.534,-1.199 2.189,-4.787 1.731,-7.024 -1.244,-6.077 -3.279,-11.992 -5,-17.971 -0.027,-0.438 -0.027,-0.783 0.477,-0.764 C 24.069,-4.25 32.757,6.592 37.334,9.243 37.688,8.737 33.608,3.453 33.16,2.893 29.062,-1.53 25.415,-6.632 19.078,-8.322 c -3.822,-1.02 -6.771,2.673 -5.961,7.551 0.704,4.238 2.111,8.361 3.244,12.525 0.559,2.05 1.204,4.076 1.81,6.113 0.304,0.577 -0.527,1.237 -1.063,0.831 C 15.549,16.89 13.617,15.282 12.504,13.231 9.813,8.272 7.558,3.079 5.018,-1.964 4.017,-3.951 4.165,-7.748 0.548,-6.322 c -0.921,0.363 -0.589,3.905 -0.832,5.986 z"
       style="fill:#000000;fill-opacity:1;fill-rule:nonzero;stroke:none"
       transform="matrix(0.35277776,0,0,-0.35277776,149.45967,179.76186)"
       clip-path="url(#clipPath14)" />
    <path
       id="path51"
       d="m 0,0 c -3.69,-7.688 -5.32,-15.623 -13.402,-19.441 -3.322,2.979 -1.661,6.187 -0.517,9.103 C -11.631,-4.505 -7.19,-1.23 0,0"
       style="fill:#ffffff;fill-opacity:1;fill-rule:nonzero;stroke:none"
       transform="matrix(0.35277776,0,0,-0.35277776,77.235647,172.60605)"
       clip-path="url(#clipPath52)" />
    <path
       id="path55"
       d="M 0,0 C 1.528,2.369 5.691,4.729 7.414,3.706 8.3,3.179 8.831,2.475 8.713,1.493 8.356,-1.48 0.535,-4.128 -1.682,-5.427 -2.72,-6.036 -0.133,-0.206 0,0 m 10.103,-13.097 c -2.933,-0.566 -5.817,-1.615 -8.762,-1.789 -1.428,-0.085 -2.947,1.363 -4.424,2.115 0.943,1.145 1.707,2.536 2.866,3.386 3.073,2.256 6.423,4.138 9.46,6.436 2.617,1.98 4.958,4.678 2.834,8.049 C 9.876,8.591 6.288,7.753 3.111,6.377 -2.316,4.025 -5.14,-0.57 -7.205,-5.863 c -0.607,-1.557 -1.651,-3.531 -3.006,-4.103 -4.734,-1.997 -9.67,-3.528 -14.571,-5.109 -2.827,-0.913 -4.323,0.454 -3.944,3.252 1.323,9.773 0.572,20.263 11.88,25.836 6.71,3.307 9.781,9.812 9.869,17.362 0.019,1.615 -0.908,3.241 -1.399,4.862 l -1.651,-0.178 c -0.491,-1.665 -1.13,-3.303 -1.446,-5 C -12.6,24.992 -15.778,20.451 -20.897,16.988 -27.843,12.289 -33.363,12.844 -39.975,9.901 -44.359,7.964 -51.74,2.426 -54.97,-0.313 c -0.718,-0.61 -1.35,-1.314 -1.877,-2.095 -2.842,-4.214 -2.091,-4.071 1.643,-3.064 7.567,3.182 16.285,11.297 24.813,11.78 -1.15,-4.961 -2.677,-9.728 -3.299,-14.611 -1.354,-10.639 3.248,-14.327 13.495,-10.84 3.983,1.356 7.654,3.628 11.589,5.542 1.523,-4.466 4.502,-6.572 9.087,-6.533 5.447,0.046 9.559,2.488 14.161,7.069 -2.431,0 -3.519,0.165 -4.539,-0.032"
       style="fill:#000000;fill-opacity:1;fill-rule:nonzero;stroke:none"
       transform="matrix(0.35277776,0,0,-0.35277776,64.40766,173.91348)"
       clip-path="url(#clipPath56)" />
    <path
       id="path57"
       d="M 0,0 C 1.13,2.283 4.588,4.798 6.205,4.027 7.037,3.632 7.572,3.043 7.56,2.145 7.521,-0.578 0.857,-3.685 -0.98,-5.062 -1.841,-5.707 -0.099,-0.198 0,0 m 0.937,-13.946 c -1.303,-0.123 -2.746,1.234 -4.124,1.914 0.898,1.16 1.593,2.594 2.73,3.428 3.474,2.549 7.472,4.498 10.549,7.432 1.577,1.504 2.221,6.37 1.442,6.4 C 9.768,6.623 6.922,8.384 4.932,7.624 1.565,6.338 -1.729,3.838 -3.998,1.003 c -2.077,-2.596 -3.103,-6.222 -3.955,-9.557 -0.804,-3.144 -2.341,-3.899 -5.568,-3.224 1.109,5.126 2.481,9.931 3.124,14.834 0.79,6.026 -2.142,8.017 -7.648,5.659 -0.717,-0.307 -1.441,-0.597 -2.304,-0.952 -3.452,6.163 -9.009,2.445 -13.564,2.935 -0.742,0.08 -1.932,-3.995 -2.915,-6.15 3.21,-1.369 1.36,-3.669 0.764,-5.424 -1.496,-4.4 -3.495,-8.635 -4.881,-13.064 -0.345,-1.102 0.867,-2.692 1.363,-4.057 1.183,0.685 2.753,1.103 3.452,2.12 0.901,1.311 0.997,3.144 1.629,4.675 2.417,5.859 4.909,11.688 7.373,17.529 0.735,-0.213 1.47,-0.425 2.204,-0.638 -0.34,-2.462 -0.437,-4.99 -1.074,-7.374 -1.156,-4.329 -2.825,-8.526 -3.851,-12.88 -0.278,-1.18 0.982,-2.723 1.537,-4.099 1.06,0.845 2.657,1.479 3.087,2.573 1.643,4.17 2.745,8.552 4.376,12.726 0.993,2.537 2.587,4.838 3.912,7.245 0.462,-0.234 0.926,-0.469 1.389,-0.703 -0.344,-1.589 -0.71,-3.172 -1.028,-4.766 -0.682,-3.419 -1.676,-6.824 -1.861,-10.272 -0.092,-1.707 0.879,-4.253 2.19,-5.025 1.205,-0.709 3.553,0.318 5.313,0.852 0.875,0.264 1.566,1.139 2.324,1.725 6.727,-7.157 18.684,-5.95 21.849,2.463 -4.246,-0.768 -8.248,-1.715 -12.302,-2.1"
       style="fill:#000000;fill-opacity:1;fill-rule:nonzero;stroke:none"
       transform="matrix(0.35277776,0,0,-0.35277776,129.15049,175.28462)"
       clip-path="url(#clipPath58)" />
    <path
       id="path59"
       d="M 0,0 C 1.34,2.308 4.988,4.606 6.498,3.609 7.274,3.096 7.74,2.41 7.637,1.454 7.324,-1.442 0.469,-4.021 -1.475,-5.285 -2.385,-5.878 -0.117,-0.2 0,0 m 10.681,-11.985 c -2.949,-0.353 -5.824,-1.449 -8.767,-1.641 -1.326,-0.087 -2.746,1.265 -4.123,1.963 0.858,1.185 1.493,2.671 2.615,3.498 3.323,2.451 6.956,4.486 10.239,6.985 2.492,1.898 4.697,5.024 2.273,7.583 C 11.377,8.03 7.328,8.599 4.95,7.866 -2.304,5.632 -5.36,-0.506 -6.981,-7.433 c -1.806,-7.713 3.158,-13.068 10.817,-11.104 3.726,0.955 7.06,3.446 10.571,5.242 l 0.284,0.336 c -1.34,0.353 -2.731,1.126 -4.01,0.974"
       style="fill:#000000;fill-opacity:1;fill-rule:nonzero;stroke:none"
       transform="matrix(0.35277776,0,0,-0.35277776,144.27686,175.19021)"
       clip-path="url(#clipPath60)" />
  </g>
</svg>
